<svg xmlns="http://www.w3.org/2000/svg" viewBox="0 0 48 48" width="48" height="48">
  <defs>
    <linearGradient id="rainbow">
      <stop stop-color="hsl(0, 100%, 75%)" offset="0%"/>
      <stop stop-color="hsl(30, 100%, 75%)" offset="15%"/>
      <stop stop-color="hsl(60, 100%, 75%)" offset="65%"/>
      <stop stop-color="hsl(120, 100%, 75%)" offset="100%"/>
    </linearGradient>
  </defs>
  <circle cx="24" cy="24" r="24" fill="url(#rainbow)"/>
  <g transform="translate(4 3)"> 
    <path d="m25.82 9.363 1.992-2.824c.572-1.11 0-1.78 0-1.78L26.286 1.02A1.674 1.674 0 0 0 24.759 0h-9.518c-.678 0-1.274.424-1.527 1.02 0 0-1.616 3.65-1.616 3.74-.343.505-.253 1.191.082 1.697l2.04 2.89C8.376 11.673 4.204 17.429 4.204 24.122 4.204 32.865 11.34 40 20 40s15.796-7.135 15.796-15.878c0-6.677-4.155-12.416-9.976-14.759zM15.412 5.347l.85-1.951h7.305l.85 1.95-2.115 3.062a15.523 15.523 0 0 0-4.702.016c-.024-.032-2.188-3.077-2.188-3.077zM20 36.686c-6.882 0-12.482-5.608-12.482-12.572S13.127 11.543 20 11.543s12.482 5.608 12.482 12.571c0 6.972-5.6 12.572-12.482 12.572z" fill="black"/>
  </g>
</svg>
